<!DOCTYPE svg PUBLIC "-//W3C//DTD SVG 1.1//EN" "http://www.w3.org/Graphics/SVG/1.1/DTD/svg11.dtd">
<!-- Uploaded to: SVG Repo, www.svgrepo.com, Transformed by: SVG Repo Mixer Tools -->
<svg fill="#000000" height="64px" width="64px" version="1.1" id="Layer_1" xmlns="http://www.w3.org/2000/svg" xmlns:xlink="http://www.w3.org/1999/xlink" viewBox="0 0 512.003 512.003" xml:space="preserve">
<g id="SVGRepo_bgCarrier" stroke-width="0"/>
<g id="SVGRepo_iconCarrier"> <g> <g> <g> <path d="M3.798,408.166c3.917,2.611,9.216,1.553,11.836-2.364l34.953-52.42l13.815-4.608c30.003-10.001,63.053-10.001,93.065,0 h0.009l13.807,4.608l34.953,52.42c0.589,0.879,1.34,1.553,2.142,2.142c0.179,0.12,0.341,0.247,0.529,0.358 c0.819,0.503,1.698,0.879,2.628,1.084c0.145,0.026,0.29,0.026,0.435,0.051c0.452,0.077,0.905,0.162,1.374,0.162 c0.35,0,0.7-0.111,1.05-0.154c0.29-0.034,0.563-0.051,0.845-0.119c0.981-0.222,1.946-0.563,2.833-1.161 c3.917-2.611,4.975-7.91,2.364-11.827l-36.574-54.861l-9.19-13.79l-7.424-11.136l16.41-45.952l34.611-19.78l13.03,26.069 c1.519,3.029,4.642,4.881,8.081,4.702c3.396-0.179,6.357-2.347,7.543-5.53l17.613-46.959l17.604,46.959 c1.195,3.183,4.156,5.35,7.552,5.53c0.145,0.009,0.299,0.009,0.444,0.009c3.217,0,6.187-1.818,7.637-4.71l13.03-26.069 l34.603,19.772l47.625,133.35c1.246,3.482,4.531,5.666,8.038,5.666c0.956,0,1.92-0.162,2.867-0.503 c4.437-1.587,6.75-6.468,5.171-10.906l-35.507-99.413l9.318-6.204L497.434,407.1c3.337,3.337,8.73,3.337,12.066,0 c3.337-3.328,3.337-8.73,0-12.066L390.033,275.567c-2.876-2.867-7.381-3.319-10.769-1.067l-11.58,7.723l-7.262-20.335v-0.009 l-36.651-102.613c-1.212-3.396-4.429-5.666-8.038-5.666h-5.726c-18.116-13.602-10.291-34.705-6.016-43.221 c11.571-2.458,20.275-12.757,20.275-25.045c0-6.545-2.475-12.527-6.536-17.067c4.062-4.531,6.536-10.513,6.536-17.067 c0-11.418-7.518-21.111-17.86-24.405C303.045,11.494,289.374,0,273.067,0c-16.307,0-29.978,11.494-33.34,26.795 c-8.004,2.543-14.319,8.926-16.759,16.973C212.463,46.959,204.8,56.738,204.8,68.267c0,11.93,8.201,21.982,19.26,24.815 c4.292,13.133,14.387,50.389-4.386,60.518h-6.34c-3.61,0-6.827,2.27-8.038,5.666l-49.852,139.58l-37.41-56.107 c-3.166-4.753-11.034-4.753-14.199,0l-65.826,98.739h-0.008L1.434,396.339C-1.177,400.256-0.119,405.555,3.798,408.166z"/> <path d="M128,426.669c-5.76,0-11.085,1.911-15.36,5.137c-4.83-6.426-11.861-11.093-19.968-12.877 c-3.285-10.342-12.988-17.86-24.405-17.86c-11.127,0-20.617,7.134-24.141,17.067h-9.992C15.309,418.136,0,433.445,0,452.269 c0,4.71,3.823,8.533,8.533,8.533s8.533-3.823,8.533-8.533c0-9.412,7.654-17.067,17.067-17.067H51.2 c4.71,0,8.533-3.823,8.533-8.533c0-4.702,3.831-8.533,8.533-8.533s8.533,3.831,8.533,8.533c0,4.71,3.823,8.533,8.533,8.533 c9.412,0,17.067,7.654,17.067,17.067c0,4.71,3.823,8.533,8.533,8.533s8.533-3.823,8.533-8.533c0-4.702,3.831-8.533,8.533-8.533 s8.533,3.831,8.533,8.533c0,4.71,3.823,8.533,8.533,8.533c4.71,0,8.533-3.823,8.533-8.533 C153.6,438.155,142.114,426.669,128,426.669z"/> <path d="M349.867,443.736c4.71,0,8.533-3.823,8.533-8.533c0-14.114-11.486-25.6-25.6-25.6c-5.76,0-11.085,1.911-15.36,5.137 c-4.83-6.426-11.861-11.093-19.968-12.877c-3.285-10.342-12.988-17.86-24.405-17.86c-11.529,0-21.291,7.654-24.491,18.142 c-10.513,3.191-18.176,12.971-18.176,24.508c0,14.123,11.486,25.617,25.6,25.617c4.71,0,8.533-3.823,8.533-8.533 s-3.823-8.533-8.533-8.533c-4.702,0-8.533-3.84-8.533-8.55c0-4.565,3.601-8.303,8.107-8.525c4.745,0.068,8.96-3.678,8.96-8.525 c0-4.702,3.831-8.533,8.533-8.533c4.702,0,8.533,3.831,8.533,8.533c0,4.71,3.823,8.533,8.533,8.533 c9.412,0,17.067,7.654,17.067,17.067c0,4.71,3.823,8.533,8.533,8.533s8.533-3.823,8.533-8.533c0-4.702,3.831-8.533,8.533-8.533 c4.702,0,8.533,3.831,8.533,8.533C341.334,439.913,345.157,443.736,349.867,443.736z"/> <path d="M256,469.336c-5.76,0-11.085,1.911-15.36,5.137c-4.83-6.426-11.861-11.093-19.968-12.877 c-3.285-10.342-12.988-17.86-24.405-17.86c-11.529,0-21.291,7.654-24.491,18.142c-10.513,3.191-18.176,12.971-18.176,24.508 c0,14.123,11.486,25.617,25.6,25.617c4.71,0,8.533-3.823,8.533-8.533s-3.823-8.533-8.533-8.533c-4.702,0-8.533-3.84-8.533-8.55 c0-4.565,3.601-8.303,8.107-8.525c4.736,0.162,8.96-3.669,8.96-8.525c0-4.702,3.831-8.533,8.533-8.533 c4.702,0,8.533,3.831,8.533,8.533c0,4.71,3.823,8.533,8.533,8.533c9.412,0,17.067,7.654,17.067,17.067 c0,4.71,3.823,8.533,8.533,8.533s8.533-3.823,8.533-8.533c0-4.702,3.831-8.533,8.533-8.533c4.702,0,8.533,3.831,8.533,8.533 c0,4.71,3.823,8.533,8.533,8.533c4.71,0,8.533-3.823,8.533-8.533C281.6,480.822,270.114,469.336,256,469.336z"/> <path d="M443.734,469.336c-5.76,0-11.085,1.911-15.36,5.137c-4.83-6.426-11.861-11.093-19.968-12.877 c-3.285-10.342-12.988-17.86-24.405-17.86c-11.529,0-21.291,7.654-24.491,18.142c-10.513,3.191-18.176,12.971-18.176,24.508 c0,14.123,11.486,25.617,25.6,25.617c4.71,0,8.533-3.823,8.533-8.533s-3.823-8.533-8.533-8.533c-4.702,0-8.533-3.84-8.533-8.55 c0-4.565,3.601-8.303,8.107-8.525c4.745,0.162,8.96-3.669,8.96-8.525c0-4.702,3.831-8.533,8.533-8.533 c4.702,0,8.533,3.831,8.533,8.533c0,4.71,3.823,8.533,8.533,8.533c9.412,0,17.067,7.654,17.067,17.067 c0,4.71,3.823,8.533,8.533,8.533s8.533-3.823,8.533-8.533c0-4.702,3.831-8.533,8.533-8.533c4.702,0,8.533,3.831,8.533,8.533 c0,4.71,3.823,8.533,8.533,8.533s8.533-3.823,8.533-8.533C469.334,480.822,457.848,469.336,443.734,469.336z"/> <path d="M486.4,435.203c-5.76,0-11.085,1.911-15.36,5.137c-4.83-6.426-11.861-11.093-19.968-12.877 c-3.285-10.342-12.988-17.86-24.405-17.86c-14.114,0-25.591,11.477-25.6,25.591v0.009c0,4.71,3.823,8.533,8.533,8.533 s8.533-3.823,8.533-8.533c0-4.702,3.831-8.533,8.533-8.533s8.533,3.831,8.533,8.533c0,4.71,3.823,8.533,8.533,8.533 c9.412,0,17.067,7.654,17.067,17.067c0,4.71,3.823,8.533,8.533,8.533s8.533-3.823,8.533-8.533c0-4.702,3.831-8.533,8.533-8.533 s8.533,3.831,8.533,8.533c0,4.71,3.823,8.533,8.533,8.533s8.533-3.823,8.533-8.533C512,446.688,500.514,435.203,486.4,435.203z"/> </g> </g> </g> </g>
</svg>